<svg width="650" height="552" viewBox="0 0 650 552" fill="none" xmlns="http://www.w3.org/2000/svg">
<g id="Group 4">
<g id="undraw_dev_productivity_umsq 1" clip-path="url(#clip0)">
<path id="Vector" d="M420.72 500.272C420.72 500.272 416.845 501.578 410.546 503.428C396.62 507.537 370.852 514.352 349.015 515.714C330.214 516.899 314.327 514.048 311.421 501.978C310.176 496.789 311.942 492.52 315.792 489.012C327.284 478.528 357.301 474.772 381.107 473.482C387.83 473.122 394.048 472.954 399.225 472.89C408.015 472.777 413.777 472.954 413.777 472.954L413.915 473.482L420.72 500.272Z" fill="#A0616A"/>
<path id="Vector_2" d="M355.665 538.676C340.705 556.904 278.947 518.717 257.346 504.477C252.642 501.378 249.842 499.416 249.842 499.416L269.603 473.482L275.862 465.273C275.862 465.273 281.462 468.196 289.739 472.954C290.04 473.13 290.342 473.306 290.651 473.482C297.789 477.607 306.75 482.997 315.792 489.012C328.269 497.317 340.885 506.792 349.015 515.714C356.967 524.436 360.622 532.629 355.665 538.676Z" fill="#A0616A"/>
<g id="Group 3">
<g id="me">
<path id="Vector_3" d="M354.795 153.726C387.85 153.726 414.646 127.358 414.646 94.8309C414.646 62.304 387.85 35.9357 354.795 35.9357C321.74 35.9357 294.944 62.304 294.944 94.8309C294.944 127.358 321.74 153.726 354.795 153.726Z" fill="#FFB8B8"/>
<path id="Vector_4" d="M310.124 124.279C310.124 124.279 321.4 207.927 304.052 217.316C286.704 226.705 407.273 227.559 407.273 227.559C407.273 227.559 380.383 155.006 392.527 132.814L310.124 124.279Z" fill="#FFB8B8"/>
<path id="Vector_5" d="M495.313 227.982L485.286 272.912L464.084 367.971L463.449 373.177L456.132 433.445L451.265 473.482L448.001 500.377C428.159 510.412 413.777 517.34 413.777 517.34C413.777 517.34 412.54 511.237 410.546 503.428C396.62 507.537 370.852 514.352 349.015 515.714C356.967 524.436 360.622 532.629 355.665 538.676C340.705 556.904 278.947 518.717 257.346 504.477C256.843 507.887 256.653 511.334 256.776 514.777L240.246 502.267L241.882 473.482L244.641 424.779L248.108 363.703C247.015 361.087 246.099 358.404 245.366 355.67C240.303 337.954 234.158 302.578 229.446 272.912C225.653 249.037 222.804 228.863 222.202 224.57C222.121 224.009 222.08 223.721 222.08 223.721L313.586 183.932C320.09 198.773 350.456 203.234 350.456 203.234C375.614 201.528 395.334 188.473 395.334 188.473L495.313 227.982Z" fill="#FEFEFF"/>
<path id="Vector_6" d="M305.005 39.1215L293.814 34.713C293.814 34.713 317.213 9.36376 349.767 11.5681L340.611 1.64878C340.611 1.64878 362.992 -7.16824 383.339 15.9766C394.035 28.1433 406.41 42.4447 414.125 58.555H426.109L421.107 69.3926L438.614 80.2302L420.645 78.2836C421.716 84.2184 421.88 90.2773 421.133 96.2598C420.362 102.244 417.258 107.7 412.477 111.475V111.475C412.477 111.475 398.599 83.2069 398.599 78.7984V89.8198C398.599 89.8198 387.408 79.9006 387.408 73.2878L381.304 81.0027L378.252 68.8791L340.611 81.0027L346.715 71.0835L323.317 74.3899L332.473 62.2663C332.473 62.2663 306.022 76.5941 305.005 88.7177C303.988 100.841 296.245 112.329 296.245 112.329C296.245 112.329 275.502 55.6535 305.005 39.1215Z" fill="#2F2E41"/>
<path id="Vector_7" d="M560.368 434.542C554.272 441.046 539.166 450.841 520.853 461.445C514.041 465.385 506.789 469.446 499.391 473.482C481.738 483.117 463.254 492.664 448.001 500.377C428.159 510.412 413.777 517.34 413.777 517.34C413.777 517.34 412.54 511.237 410.546 503.428C407.876 492.976 403.856 479.465 399.664 473.482C399.518 473.274 399.371 473.082 399.225 472.89C398.004 471.312 396.775 470.391 395.562 470.391L456.132 433.445L482.307 417.475L463.449 373.177L439.797 317.611L454.073 272.912L468.422 227.982H495.313C495.313 227.982 504.217 247.107 515.604 273.777C517.305 277.766 519.063 281.923 520.853 286.215C544.277 342.278 573.48 420.567 560.368 434.542Z" fill="#DEDCE9"/>
<path id="Vector_8" d="M289.739 472.954C287.53 472.945 285.325 473.122 283.147 473.482C264.435 476.646 258.917 493.313 257.346 504.477C256.843 507.887 256.653 511.334 256.776 514.777L240.246 502.267L234.223 497.71C219.728 492.736 206.811 483.902 195.612 473.482C185.897 464.283 177.181 454.113 169.608 443.136C162.065 432.317 155.34 420.967 149.489 409.178C147.856 405.888 146.978 402.285 146.918 398.624C146.857 394.963 147.615 391.334 149.139 387.994L169.608 343.103L199.527 277.493C199.747 275.932 199.988 274.405 200.251 272.912C206.185 239.435 222.08 224.57 222.08 224.57H234.223L242.346 272.912L252.438 332.972L245.366 355.67L229.023 408.089L244.641 424.779L289.739 472.954Z" fill="#DEDCE9"/>
</g>
<path id="Vector_9" d="M303.483 333.02L313.864 344.938C317.721 344.214 321.749 343.364 325.897 342.409L322.915 333.02L330.206 341.39C374.154 330.753 428.628 310.073 428.628 310.073C428.628 310.073 369.818 314.317 325.907 304.877C306.479 300.7 286.49 310.177 278.517 328.105C273.883 338.525 274.611 347.553 291.046 347.553C296.6 347.459 302.138 346.947 307.611 346.02L303.483 333.02Z" fill="#80E6B5"/>
</g>
<path id="Vector_10" d="M540.143 528.905V533.766C540.145 535.101 539.894 536.423 539.402 537.667C539.183 538.221 538.919 538.756 538.612 539.268C537.642 540.871 536.266 542.197 534.618 543.118C532.97 544.039 531.107 544.523 529.212 544.522H165.767C163.871 544.523 162.008 544.039 160.36 543.118C158.712 542.197 157.336 540.871 156.366 539.268C156.059 538.757 155.795 538.221 155.577 537.667C155.084 536.423 154.833 535.101 154.836 533.766V528.905C154.836 527.492 155.118 526.093 155.667 524.788C156.216 523.483 157.021 522.297 158.037 521.298C159.052 520.299 160.257 519.507 161.583 518.967C162.909 518.426 164.331 518.148 165.767 518.149H186.716V515.882C186.716 515.823 186.728 515.765 186.751 515.71C186.774 515.656 186.807 515.606 186.849 515.565C186.892 515.523 186.942 515.49 186.997 515.468C187.053 515.445 187.112 515.434 187.172 515.434H198.103C198.162 515.434 198.222 515.445 198.277 515.468C198.332 515.49 198.383 515.523 198.425 515.565C198.467 515.606 198.501 515.656 198.524 515.71C198.547 515.765 198.558 515.823 198.558 515.882V518.149H205.387V515.882C205.387 515.823 205.399 515.765 205.421 515.71C205.444 515.656 205.478 515.606 205.52 515.565C205.563 515.523 205.613 515.49 205.668 515.468C205.724 515.445 205.783 515.434 205.843 515.434H216.773C216.833 515.434 216.893 515.445 216.948 515.468C217.003 515.49 217.054 515.523 217.096 515.565C217.138 515.606 217.172 515.656 217.195 515.71C217.218 515.765 217.229 515.823 217.229 515.882V518.149H224.066V515.882C224.066 515.823 224.078 515.765 224.1 515.71C224.123 515.656 224.157 515.606 224.199 515.565C224.242 515.523 224.292 515.49 224.347 515.468C224.402 515.445 224.462 515.434 224.522 515.434H235.452C235.512 515.434 235.571 515.445 235.627 515.468C235.682 515.49 235.732 515.523 235.775 515.565C235.817 515.606 235.851 515.656 235.874 515.71C235.896 515.765 235.908 515.823 235.908 515.882V518.149H242.737V515.882C242.737 515.823 242.748 515.765 242.771 515.71C242.794 515.656 242.828 515.606 242.87 515.565C242.912 515.523 242.963 515.49 243.018 515.468C243.073 515.445 243.133 515.434 243.192 515.434H254.123C254.183 515.434 254.242 515.445 254.298 515.468C254.353 515.49 254.403 515.523 254.446 515.565C254.488 515.606 254.521 515.656 254.544 515.71C254.567 515.765 254.579 515.823 254.579 515.882V518.149H261.407V515.882C261.407 515.823 261.419 515.765 261.442 515.71C261.465 515.656 261.498 515.606 261.541 515.565C261.583 515.523 261.633 515.49 261.689 515.468C261.744 515.445 261.803 515.434 261.863 515.434H272.794C272.854 515.434 272.913 515.445 272.968 515.468C273.024 515.49 273.074 515.523 273.116 515.565C273.159 515.606 273.192 515.656 273.215 515.71C273.238 515.765 273.25 515.823 273.25 515.882V518.149H280.086V515.882C280.086 515.823 280.098 515.765 280.121 515.71C280.144 515.656 280.177 515.606 280.22 515.565C280.262 515.523 280.312 515.49 280.368 515.468C280.423 515.445 280.482 515.434 280.542 515.434H291.473C291.533 515.434 291.592 515.445 291.647 515.468C291.703 515.49 291.753 515.523 291.795 515.565C291.838 515.606 291.871 515.656 291.894 515.71C291.917 515.765 291.929 515.823 291.929 515.882V518.149H298.757V515.882C298.757 515.823 298.769 515.765 298.792 515.71C298.815 515.656 298.848 515.606 298.89 515.565C298.933 515.523 298.983 515.49 299.038 515.468C299.094 515.445 299.153 515.434 299.213 515.434H384.835C384.895 515.434 384.954 515.445 385.009 515.468C385.065 515.49 385.115 515.523 385.157 515.565C385.2 515.606 385.233 515.656 385.256 515.71C385.279 515.765 385.291 515.823 385.291 515.882V518.149H392.127V515.882C392.127 515.823 392.139 515.765 392.162 515.71C392.185 515.656 392.218 515.606 392.261 515.565C392.303 515.523 392.353 515.49 392.409 515.468C392.464 515.445 392.523 515.434 392.583 515.434H403.514C403.634 515.435 403.75 515.482 403.835 515.566C403.92 515.65 403.968 515.764 403.97 515.882V518.149H410.798V515.882C410.798 515.823 410.81 515.765 410.833 515.71C410.855 515.656 410.889 515.606 410.931 515.565C410.974 515.523 411.024 515.49 411.079 515.468C411.135 515.445 411.194 515.434 411.254 515.434H422.185C422.244 515.434 422.304 515.445 422.359 515.468C422.414 515.49 422.465 515.523 422.507 515.565C422.549 515.606 422.583 515.656 422.606 515.71C422.629 515.765 422.64 515.823 422.64 515.882V518.149H429.469V515.882C429.469 515.823 429.481 515.765 429.503 515.71C429.526 515.656 429.56 515.606 429.602 515.565C429.645 515.523 429.695 515.49 429.75 515.468C429.806 515.445 429.865 515.434 429.925 515.434H440.855C440.915 515.434 440.975 515.445 441.03 515.468C441.085 515.49 441.136 515.523 441.178 515.565C441.22 515.606 441.254 515.656 441.277 515.71C441.3 515.765 441.311 515.823 441.311 515.882V518.149H448.148V515.882C448.148 515.823 448.16 515.765 448.182 515.71C448.205 515.656 448.239 515.606 448.281 515.565C448.323 515.523 448.374 515.49 448.429 515.468C448.484 515.445 448.544 515.434 448.604 515.434H459.534C459.654 515.435 459.768 515.483 459.852 515.567C459.936 515.651 459.983 515.764 459.982 515.882V518.149H466.819V515.882C466.819 515.823 466.83 515.765 466.853 515.71C466.876 515.656 466.91 515.606 466.952 515.565C466.994 515.523 467.045 515.49 467.1 515.468C467.155 515.445 467.215 515.434 467.274 515.434H478.205C478.265 515.434 478.324 515.445 478.38 515.468C478.435 515.49 478.485 515.523 478.528 515.565C478.57 515.606 478.603 515.656 478.626 515.71C478.649 515.765 478.661 515.823 478.661 515.882V518.149H485.489V515.882C485.489 515.823 485.501 515.765 485.524 515.71C485.547 515.656 485.58 515.606 485.623 515.565C485.665 515.523 485.715 515.49 485.771 515.468C485.826 515.445 485.885 515.434 485.945 515.434H496.876C496.936 515.434 496.995 515.445 497.05 515.468C497.106 515.49 497.156 515.523 497.198 515.565C497.241 515.606 497.274 515.656 497.297 515.71C497.32 515.765 497.332 515.823 497.332 515.882V518.149H529.212C530.647 518.148 532.069 518.426 533.395 518.967C534.722 519.507 535.927 520.299 536.942 521.298C537.957 522.297 538.762 523.483 539.311 524.788C539.86 526.093 540.143 527.492 540.143 528.905V528.905Z" fill="#3F3D56"/>
<path id="Vector_11" d="M645.827 537.667H49.2409V539.268H645.827V537.667Z" fill="#3F3D56"/>
<path id="Vector_12" d="M510.878 324.171H375.411V321.423H313.985V324.171H177.959C175.529 324.171 173.198 325.121 171.48 326.812C169.761 328.503 168.796 330.796 168.796 333.188V515.722C168.796 518.114 169.761 520.407 171.48 522.098C173.198 523.789 175.529 524.739 177.959 524.739H510.878C513.309 524.739 515.639 523.789 517.358 522.098C519.076 520.407 520.042 518.114 520.042 515.722V333.188C520.042 332.003 519.805 330.831 519.344 329.737C518.884 328.643 518.209 327.649 517.358 326.812C516.507 325.974 515.497 325.31 514.385 324.857C513.273 324.404 512.082 324.171 510.878 324.171V324.171Z" fill="#3F3D56"/>
<path id="Vector_13" d="M344.685 407.92C355.923 407.92 365.033 398.956 365.033 387.898C365.033 376.84 355.923 367.875 344.685 367.875C333.448 367.875 324.338 376.84 324.338 387.898C324.338 398.956 333.448 407.92 344.685 407.92Z" stroke="#D0CDE1" stroke-width="2" stroke-miterlimit="10"/>
<path id="Vector_14" d="M338.174 415.129C349.412 415.129 358.522 406.164 358.522 395.106C358.522 384.048 349.412 375.083 338.174 375.083C326.937 375.083 317.827 384.048 317.827 395.106C317.827 406.164 326.937 415.129 338.174 415.129Z" fill="#D0CDE1"/>
<path id="Vector_15" d="M88.2639 529.575H65.4748V552H88.2639V529.575Z" fill="#D0CDE1"/>
<path id="Vector_16" d="M74.4309 511.955V539.186H102.103V511.955H74.4309ZM100.899 538.001H75.6273V513.14H100.899V538.001Z" fill="#3F3D56"/>
<path id="Vector_17" d="M615.669 529.575H592.88V552H615.669V529.575Z" fill="#D0CDE1"/>
<path id="Vector_18" d="M601.836 511.955V539.186H629.508V511.955H601.836ZM628.304 538.001H603.032V513.14H628.304V538.001Z" fill="#3F3D56"/>
<path id="Vector_19" d="M76.9784 184.298C112.642 184.298 141.553 155.849 141.553 120.754C141.553 85.66 112.642 57.2104 76.9784 57.2104C41.3147 57.2104 12.4035 85.66 12.4035 120.754C12.4035 155.849 41.3147 184.298 76.9784 184.298Z" fill="#2DD986"/>
<path id="Vector_20" d="M99.4818 45.243C93.6349 44.5112 87.7173 44.5112 81.8704 45.243C68.8445 46.926 56.5825 52.2508 46.5396 60.5855C36.4967 68.9203 29.0943 79.9151 25.2109 92.2655C23.4447 97.8939 22.4445 103.728 22.2365 109.615C22.2072 110.433 22.1876 111.261 22.1876 112.089C22.2058 129.958 29.4273 147.09 42.2675 159.725C55.1076 172.36 72.5174 179.467 90.6762 179.484C92.134 179.484 93.5918 179.436 95.0301 179.35C98.4062 179.141 101.762 178.684 105.069 177.982C120.86 174.641 134.943 165.916 144.83 153.347C154.718 140.779 159.774 125.177 159.106 109.297C158.438 93.416 152.088 78.2786 141.178 66.5582C130.268 54.8377 115.5 47.2882 99.4818 45.243H99.4818ZM112.113 174.074H112.103C106.587 175.926 100.846 177.049 95.03 177.414C93.5917 177.511 92.1339 177.559 90.6761 177.559C73.0374 177.538 56.1273 170.633 43.6549 158.36C31.1825 146.086 24.1659 129.446 24.1444 112.089C24.1444 111.261 24.1639 110.433 24.1933 109.615C24.8659 92.6995 32.1618 76.6958 44.5538 64.9539C56.9458 53.212 73.4731 46.6422 90.6761 46.6198C106.438 46.6206 121.688 52.128 133.709 62.1606C145.73 72.1933 153.741 86.0996 156.315 101.402C158.889 116.704 155.858 132.409 147.763 145.718C139.668 159.027 127.034 169.075 112.113 174.074H112.113Z" fill="#3F3D56"/>
<path id="Vector_21" d="M91.6545 50.4709H89.6977V63.9499H91.6545V50.4709Z" fill="#3F3D56"/>
<path id="Vector_22" d="M47.0903 67.8377L45.7066 69.1993L55.3924 78.7304L56.776 77.3688L47.0903 67.8377Z" fill="#3F3D56"/>
<path id="Vector_23" d="M28.058 111.126V113.052H41.7557V111.126H28.058Z" fill="#3F3D56"/>
<path id="Vector_24" d="M45.7066 154.979L47.0903 156.341L56.776 146.81L55.3923 145.448L45.7066 154.979Z" fill="#3F3D56"/>
<path id="Vector_25" d="M124.576 77.3688L125.96 78.7304L135.646 69.1993L134.262 67.8377L124.576 77.3688Z" fill="#3F3D56"/>
<path id="Vector_26" d="M139.597 111.126V113.052H153.294V111.126H139.597Z" fill="#3F3D56"/>
<path id="Vector_27" d="M125.96 145.448L124.576 146.81L134.262 156.341L135.646 154.979L125.96 145.448Z" fill="#3F3D56"/>
<path id="Vector_28" d="M91.6545 160.229H89.6977V173.708H91.6545V160.229Z" fill="#3F3D56"/>
<path id="Vector_29" d="M93.6113 108.238C92.7646 107.613 91.7346 107.275 90.6761 107.275C89.6176 107.275 88.5877 107.613 87.7409 108.238C87.1612 108.671 86.6839 109.223 86.3418 109.856C85.9084 110.67 85.7209 111.589 85.8015 112.505C85.8821 113.421 86.2275 114.295 86.7967 115.023C87.366 115.752 88.1354 116.305 89.014 116.618C89.8926 116.93 90.8436 116.988 91.7547 116.785C92.6658 116.583 93.4989 116.127 94.1556 115.474C94.8122 114.82 95.2648 113.995 95.4601 113.096C95.6554 112.197 95.5851 111.262 95.2574 110.401C94.9298 109.54 94.3586 108.79 93.6113 108.238ZM90.6761 114.978C89.8984 114.975 89.1531 114.67 88.6031 114.129C88.0532 113.588 87.7432 112.855 87.7409 112.089C87.7447 111.505 87.9252 110.935 88.2595 110.453C88.5462 110.044 88.9351 109.715 89.3888 109.498C89.8424 109.28 90.3454 109.182 90.849 109.212C91.3527 109.242 91.8399 109.399 92.2638 109.668C92.6876 109.938 93.0336 110.31 93.2683 110.75C93.503 111.189 93.6185 111.681 93.6036 112.177C93.5887 112.673 93.444 113.158 93.1833 113.583C92.9227 114.008 92.555 114.36 92.1158 114.604C91.6766 114.848 91.1807 114.977 90.6761 114.978Z" fill="#3F3D56"/>
<path id="Vector_30" d="M99.4818 28.3268H81.8705V45.6569H99.4818V28.3268Z" fill="#3F3D56"/>
<path id="Vector_31" d="M90.6761 31.2152C103.645 31.2152 114.158 27.5512 114.158 23.0315C114.158 18.5117 103.645 14.8478 90.6761 14.8478C77.7075 14.8478 67.1943 18.5117 67.1943 23.0315C67.1943 27.5512 77.7075 31.2152 90.6761 31.2152Z" fill="#3F3D56"/>
<path id="arrow" d="M93.6114 75.5034H87.7409V108.238H93.6114V75.5034Z" fill="#3F3D56"/>
<path id="Vector_32" d="M183.941 176.551H0V178.477H183.941V176.551Z" fill="#3F3D56"/>
<g id="leaf-left">
<path id="Vector_33" d="M120.342 477.62C121.102 503.209 105.908 512.586 86.8399 513.134C86.397 513.147 85.9561 513.155 85.5171 513.158C84.6329 513.164 83.7572 513.15 82.8901 513.114C65.645 512.41 51.9945 503.402 51.2882 479.604C50.5573 454.977 81.6212 422.978 83.9519 420.611L83.956 420.609C84.0446 420.519 84.0899 420.474 84.0899 420.474C84.0899 420.474 119.583 452.033 120.342 477.62Z" fill="#D0CDE1"/>
<path id="Vector_34" d="M89.3201 513.583L101.433 495.857L89.3448 515.49L89.3701 517.484C88.4858 517.491 87.6101 517.476 86.743 517.441L87.3438 491.802L87.3273 491.604L87.3495 491.566L87.407 489.144L74.1422 470.192L87.3914 487.33L87.4384 487.842L87.8921 468.472L76.4349 448.823L87.9248 465.069L87.8048 424.938L87.8051 424.804L87.809 424.935L88.5696 456.564L99.0114 443.717L88.6037 459.289L88.8316 476.616L98.4403 459.705L88.8669 479.163L88.9938 488.797L102.967 465.242L89.0363 492.159L89.3201 513.583Z" fill="#3F3D56"/>
</g>
<g id="leaf-right">
<path id="Vector_35" d="M650.189 481.624C650.949 507.213 635.755 516.591 616.687 517.139C616.244 517.152 615.803 517.159 615.364 517.162C614.48 517.169 613.604 517.154 612.737 517.119C595.492 516.414 581.841 507.406 581.135 483.609C580.404 458.981 611.468 426.983 613.799 424.616L613.803 424.614C613.891 424.523 613.937 424.478 613.937 424.478C613.937 424.478 649.43 456.038 650.189 481.624Z" fill="#D0CDE1"/>
<path id="Vector_36" d="M615.314 513.261L627.426 495.536L615.339 515.168L615.364 517.162C614.48 517.169 613.604 517.154 612.737 517.119L613.338 491.48L613.321 491.283L613.343 491.244L613.401 488.822L600.136 469.87L613.385 487.009L613.432 487.521L613.886 468.15L602.429 448.502L613.919 464.747L613.799 424.616L613.799 424.482L613.803 424.614L614.563 456.242L625.005 443.395L614.598 458.967L614.825 476.294L624.434 459.384L614.861 478.841L614.988 488.476L628.961 464.92L615.03 491.837L615.314 513.261Z" fill="#3F3D56"/>
</g>
</g>
</g>
<defs>
<clipPath id="clip0">
<rect width="650" height="552" fill="white"/>
</clipPath>
</defs>
</svg>
